<?xml version="1.0" encoding="utf-8"?>
<!-- Generator: Adobe Illustrator 21.1.0, SVG Export Plug-In . SVG Version: 6.00 Build 0)  -->
<svg version="1.1" id="Layer_1" xmlns="http://www.w3.org/2000/svg" xmlns:xlink="http://www.w3.org/1999/xlink" x="0px" y="0px"
	 viewBox="0 0 254 250" style="enable-background:new 0 0 254 250;" xml:space="preserve">
<style type="text/css">
	.st0{fill:#FFFFFF;}
	.st1{fill:#6ECDB2;}
</style>
<g>
	<circle class="st0" cx="127" cy="125" r="119.3"/>
	<path class="st1" d="M7.7,125c0,65.9,53.4,119.3,119.3,119.3S246.3,190.9,246.3,125c0-4-0.2-8-0.6-11.9H8.3
		C7.9,117,7.7,121,7.7,125z"/>
	<g>
		<polygon class="st1" points="112.7,38 124,40.5 116.1,33.5 112.9,33.4 112.5,30.3 110.2,32.7 110.9,34.3 112,35.4 109.2,39 		"/>
		<polygon class="st1" points="132.8,40 130.8,42.5 134.9,44.8 		"/>
		<polygon class="st1" points="142.4,48.9 139.6,42.6 139,47.1 135.7,48.7 141.7,51.3 		"/>
		<path class="st1" d="M91.1,53.4c-2,0.4-4.1,0.9-6,1.7l0.8,2.2c1.8-0.6,3.7-0.9,5.6-1.1c1.8-0.1,3.6,0,5.4,0.4l0.7-3.2
			C95.5,53.1,93.3,53.1,91.1,53.4z"/>
		<path class="st1" d="M76.7,61.7c-1.2,1.7-2.1,3.6-2.8,5.4l0.7,0.3c0.9-1.8,1.9-3.4,3.2-4.9c1.3-1.4,2.7-2.7,4.4-3.6l-1.1-1.7
			C79.4,58.5,77.9,60,76.7,61.7z"/>
		<path class="st1" d="M100.7,58c3.4,1.6,6.6,3.8,9.8,6.1l2.3-3.3c-3.3-2.2-6.8-4.5-10.7-6L100.7,58z"/>
		<path class="st1" d="M113.9,66.7c3.1,2.4,6.1,5,9.3,7.4l2.7-3.5c-3.1-2.4-6.2-4.9-9.4-7.3L113.9,66.7z"/>
		<path class="st1" d="M126.7,76.7c3.3,2.3,6.6,4.6,10.1,6.7l2.2-3.6c-3.3-2.1-6.5-4.3-9.7-6.6L126.7,76.7z"/>
		<path class="st1" d="M142.6,82l-1.9,3.6c3.6,1.9,7.4,3.6,11.6,4.4l0.7-3.5c-1.8-0.4-3.5-1.1-5.3-1.9C146,83.9,144.3,83,142.6,82z"
			/>
		<path class="st1" d="M156.8,86.9l0.4,3.3c4.3-0.6,8.2-2.4,11.5-5l-1.4-1.9C164.1,85.3,160.4,86.6,156.8,86.9z"/>
		<path class="st1" d="M173.7,76c-0.9,1.7-2,3.3-3.3,4.7l1.5,1.3c1.3-1.7,2.3-3.5,3.1-5.4c0.8-1.9,1.4-3.8,1.7-5.8l-0.7-0.2
			C175.4,72.4,174.6,74.3,173.7,76z"/>
		<path class="st1" d="M163.8,45.8c-3.6-1.8-10.7-3.7-17.5-0.8l-2.9-6.4l-13.6-10.9l-4.5,3l-2.1-1.7l-1.9,1.5l-8.4-7.8L89.5,44.4
			c-4,1.2-7.6,3.3-10.7,6.2c-3.6,3.3-6,7.9-6.1,8.1c-0.2,0.4-0.4,0.8-0.6,1.3c-1.8,3.8-2.8,8.1-2.8,12.4c0,7.8,3,15.1,8.5,20.7
			c5.4,5.5,12.7,8.7,20.5,8.9c1,0.1,2,0.1,3,0.1c7.3,0,14.4-2.7,19.9-7.6l4.2-4l0.3,0.2c0,0,5,3.3,10.3,6.5
			c5.6,3.4,11.4,4.9,14.6,4.9h0c0.8,0,1.7,0,2.6-0.1c0.9-0.1,1.9-0.2,2.9-0.4c14.4-1.8,25.3-14.2,25.3-28.8
			C181.4,61.2,174.5,50.4,163.8,45.8z M112.9,27.7l8.3,7.7l2.1-1.7l2,1.5l4.5-3l10.8,8.7l3.8,8.3l9.9,3.3l2.5,8l13.9,8
			c-1,1-2,1.8-3.1,2.6c-0.8,0.6-1.7,1-2.6,1.5l-5.7-5.9l-1.7,3.1l-3.4-2.6l-3.7-10.4l-2.5,7.3l-6.8,0.8l11,9.6
			c-3.2-0.6-6.1-1.9-8.8-3.2c-1.8-0.9-9.6-7.1-16.4-12.6c-2.1-1.7-4.1-3.2-5.8-4.6l-0.5-3.9l3.4-1l-1-5.2l-3.1-2.2l-2.8,4.5
			l-3.7-3.1l-2.7,3.2c0,0,0,0-0.1,0c-4.1-2.1-8-3.1-12.8-3.1c-0.5,0-1.1,0-1.6,0.1L112.9,27.7z M166.4,53.1
			c4.3,2.6,7.3,7.3,6.9,10.6c0,0.4-0.1,1.1-0.5,1.9l-13.2-7.5l-2.3-7.3C159.7,50.7,163.1,51.1,166.4,53.1z M169,90.9
			c-4.3,4-10,6.4-16.3,6.4c-4,0-7.4-0.8-10.9-2.6c-3.4-1.8-39.6-26.9-41.5-28c-4.5-2.5-9.1-4-13.6-4c-1.7,0-3.3,0.1-5.1,0.8
			c-3.8,1.4-7.5,5-7.7,10.5c-0.2,7.8,4,14.5,10.4,18.5l0,0c3.9,2.3,8.3,3.8,12.7,3.5c12.5-0.8,20.1-9.5,21.2-10.8v-2.8c0,0,0,0,0,0
			c0,0,0,0,0,0v-0.1l0,0c0.1-1.2,1.1-1.2,2.3-0.1c0.5,0.5,1,1,1.4,1.7c-0.7,1-1.1,1.7-2.2,2.9l1.4,1.1c0.7-0.9,1.2-1.5,1.7-2.2
			c0.1,0.3,0.1,0.5,0.1,0.8h0v2.1l0,0.1c-4,5.5-9.4,9-15.7,10.4c-2.5,0.6-5.7,1.1-7.5,1.1c-15.5,0-28-12-28-26.8
			c0-9.8,5.9-16.7,9.1-19.7c2.1-2,4.6-3.6,7.2-4.7c3.8-1.8,19.2-5.6,39.2,15.6c7.6,6.1,12.4,9.9,14.2,10.8c3.9,1.9,8.5,4,13.7,4
			c2.3,0,4.5-0.3,6.7-0.9c7.5-1.8,11.9-7.3,13-9.6c1.1-2.2,1.8-6.5-1.2-11.4c-5.5-8.9-16.4-9.9-20.2-9l-1.9-0.6
			c1.7-0.3,3.4-0.5,5.1-0.7l0-0.4c-2.2,0-4.5,0-6.8,0.5l-2-0.7c8.2-3.4,22.2,1.2,28.1,12.7c3.3,6.4,2.8,12.6,2.4,15.2
			C178.3,75.6,176.7,84.8,169,90.9z M116.2,83c0,0-3.3,3.9-7,6.6c-0.1,0-0.1,0.1-0.1,0.1c-3.7,2.5-7.6,3.7-11.8,3.7
			c-9.8,0-17.5-4.7-20.5-13.8l0,0c-0.3-1-0.5-2-0.5-3.1c0-4.7,3.3-8.7,7.9-10c0,0,1.5-0.3,3-0.2c5.4,0.1,10.8,3.2,10.8,3.2
			C101.7,71.4,116.2,83,116.2,83z"/>
		<path class="st1" d="M116.4,92.1c1-0.7,2-1.6,2.9-2.4l-1.2-1.2c-0.8,0.9-1.7,1.7-2.6,2.4c-0.9,0.7-1.9,1.4-2.9,2.1l0.6,1
			C114.3,93.5,115.4,92.9,116.4,92.1z"/>
		<path class="st1" d="M110.7,95.3l-0.4-0.9c-2.2,1.1-4.4,1.9-6.8,2.5l0.1,0.4C106,96.8,108.4,96.2,110.7,95.3z"/>
	</g>
	<g>
		<path class="st0" d="M75,203.5h-2.1l-0.4-2.4h-2.6l-0.4,2.4h-1.9l2.1-13.4h3.1L75,203.5z M70.2,199.3h2l-1-6.8L70.2,199.3z"/>
		<path class="st0" d="M77.2,190.1h3.3c2.1,0,3.1,1.2,3.1,3.3v6.8c0,2.1-1,3.3-3.1,3.3h-3.3V190.1z M79.3,192.1v9.6h1.2
			c0.7,0,1.1-0.3,1.1-1.3v-7c0-1-0.4-1.3-1.1-1.3H79.3z"/>
		<path class="st0" d="M89.3,201.1l1.6-10.9h1.9l-2.1,13.4h-3.1l-2.1-13.4h2.1L89.3,201.1z"/>
		<path class="st0" d="M97.2,195.8h2.9v1.9h-2.9v3.9h3.6v1.9h-5.7v-13.4h5.7v1.9h-3.6V195.8z"/>
		<path class="st0" d="M105.2,193.8v9.7h-1.9v-13.4h2.6l2.2,8v-8h1.9v13.4h-2.2L105.2,193.8z"/>
		<path class="st0" d="M112.1,190.1h6.5v1.9h-2.2v11.5h-2.1v-11.5h-2.2V190.1z"/>
		<path class="st0" d="M122.8,190.1v10.3c0,1,0.4,1.3,1.1,1.3c0.7,0,1.1-0.3,1.1-1.3v-10.3h2v10.2c0,2.1-1.1,3.4-3.1,3.4
			c-2.1,0-3.1-1.2-3.1-3.4v-10.2H122.8z"/>
		<path class="st0" d="M134,203.5c-0.1-0.3-0.2-0.6-0.2-1.6v-2.1c0-1.2-0.4-1.7-1.4-1.7h-0.7v5.5h-2.1v-13.4h3.2
			c2.2,0,3.1,1,3.1,3.1v1.1c0,1.4-0.4,2.3-1.4,2.7c1.1,0.4,1.4,1.5,1.4,2.8v2.1c0,0.7,0,1.1,0.2,1.6H134z M131.7,192.1v4.1h0.8
			c0.8,0,1.3-0.3,1.3-1.4v-1.3c0-1-0.3-1.4-1.1-1.4H131.7z"/>
		<path class="st0" d="M140.6,195.8h2.9v1.9h-2.9v3.9h3.6v1.9h-5.7v-13.4h5.7v1.9h-3.6V195.8z"/>
		<path class="st0" d="M149.6,190c2,0,3.1,1.2,3.1,3.4v0.4h-2v-0.6c0-1-0.4-1.3-1.1-1.3c-0.7,0-1.1,0.4-1.1,1.3
			c0,2.8,4.1,3.3,4.1,7.1c0,2.1-1.1,3.4-3.1,3.4s-3.1-1.2-3.1-3.4v-0.8h2v1c0,1,0.4,1.3,1.1,1.3c0.7,0,1.1-0.3,1.1-1.3
			c0-2.8-4.1-3.3-4.1-7.1C146.5,191.2,147.5,190,149.6,190z"/>
		<path class="st0" d="M157.1,201.5v2h-2v-2H157.1z"/>
		<path class="st0" d="M165.7,198.5v1.8c0,2.1-1.1,3.4-3.1,3.4c-2.1,0-3.1-1.2-3.1-3.4v-7c0-2.1,1.1-3.4,3.1-3.4
			c2.1,0,3.1,1.2,3.1,3.4v1.3h-2v-1.4c0-1-0.4-1.3-1.1-1.3c-0.7,0-1.1,0.4-1.1,1.3v7.2c0,1,0.4,1.3,1.1,1.3c0.7,0,1.1-0.3,1.1-1.3
			v-1.9H165.7z"/>
		<path class="st0" d="M168.1,193.4c0-2.1,1.1-3.4,3.2-3.4s3.2,1.2,3.2,3.4v7c0,2.1-1.1,3.4-3.2,3.4s-3.2-1.2-3.2-3.4V193.4z
			 M170.2,200.4c0,1,0.4,1.3,1.1,1.3c0.7,0,1.1-0.4,1.1-1.3v-7.2c0-1-0.4-1.3-1.1-1.3c-0.7,0-1.1,0.4-1.1,1.3V200.4z"/>
		<path class="st0" d="M181.5,199.6l1.4-9.5h2.9v13.4h-2v-9.6l-1.5,9.6h-2l-1.6-9.5v9.5H177v-13.4h2.9L181.5,199.6z"/>
	</g>
	<g>
		<path class="st0" d="M200.2,183.5c-1.5,0.7-3.1,1.3-4.8,1.6c-4.7,0.7-7.9-2.2-8.4-7.5c0-0.2,0-0.3-0.1-0.5
			c-0.1-0.2-0.4-0.3-0.7-0.2c-0.5,0.2-1.1,0.7-1.5,1c-0.5,0.4-1.1,0.8-1.6,1.2c-1.1,0.8-2.1,1.6-3.3,2.3c-2,1.3-3.9,2.8-6.3,3.5
			c-1.9,0.5-3.8,0.6-5.7,0.3c-1.1-0.2-2.2-0.5-3.1-1c-1-0.6-2-1.8-2.3-2.8c-0.2-0.7-0.3-1.4-0.6-2.1c-0.1-0.3-0.4-0.6-0.7-0.6
			c-0.2,0-0.3,0.1-0.4,0.1c-0.5,0.3-0.9,0.7-1.3,1.1c-3,2.8-7,5.1-11.2,5.3c-0.3,0-0.7,0-1,0c-0.8-0.1-1.5-0.5-2.1-0.8
			c-0.8-0.4-1.4-1-2-1.6c-0.8-0.9-1.3-2-1.5-3.2c-0.4-1.9-0.1-4,0.3-5.9c0.3-1.2,0.5-2.4,0.8-3.6c0.2-0.7,0.3-1.5,0.6-2.2
			c0.4-1.1,1-2.2,1-3.3c0-0.1,0-0.2,0-0.3c-0.3-0.7-2,0.1-2.4,0.2c-1.1,0.3-2.1,0.7-3.2,1c-0.6,0.2-1.2,0.4-1.6,0.8
			c-0.2,0.3-0.3,0.6-0.5,1c-0.5,1.6-0.8,3.2-1.6,4.7c-0.6,1-1,2.2-1.6,3.3c-0.6,1-1.3,1.9-2.1,2.8c-0.7,0.8-1.4,1.6-2.2,2.3
			c-1.6,1.3-3.6,3-5.5,3.8c-2,0.8-4.6,0.9-6.8,0.6c-1.9-0.3-3.5-1.6-4.7-3.2c-0.6-0.8-1.2-1.6-1.6-2.6c-0.1-0.2-1-2.5-1-2.4
			c-0.4,0.4-0.7,0.8-1.1,1.2c-1.9,2.1-3.6,4.5-6.1,5.8c-1.7,0.9-3.8,1.4-5.7,1c-0.3-0.1-0.6-0.1-0.9-0.2c-0.3-0.1-0.6-0.3-0.9-0.4
			c-0.5-0.3-1-1.1-1.4-1.5c-0.1-0.2-0.3-0.4-0.4-0.6c-0.1-0.2-0.3-0.2-0.5-0.3c-0.4-0.1-0.8,0.3-1.1,0.6c-1.7,1.6-3.8,2.6-6.1,3
			c-1.1,0.2-2.2,0.2-3.3,0.1c-2-0.1-3.6-1.1-4.9-2.6c-0.4-0.5-0.6-1.3-0.9-2c-1-2.1-0.6-4.4-0.8-6.9c-0.5,0.7-0.8,1.3-1.2,1.8
			c-1.2,1.5-2.5,2.9-3.8,4.3c-1.1,1.2-2.3,2.4-3.5,3.6c-0.5,0.5-1.7,1.1-2.4,1.4c-2.1,0.9-3.7,0.5-5.8,0.3c-1.6-0.2-3-1-3.6-2.7
			c-0.3-0.8-0.8-1.5-1.1-2.2c-0.2-0.4-0.2-0.9-0.2-1.3c0-0.9,0-1.9,0-2.8c-0.1-0.1-0.2-0.1-0.3-0.2c-3.7-2.2-10.3,7.5-9.4,10.6
			c0.3,1,0.9,1.8,1.3,2.8c0.4,0.9,0.5,2.1-0.1,2.9c-0.9,1.1-2.7,0.8-4.1,0.4c-1.6-0.5-3.3-1.1-4.2-2.5c-0.7-1.1-0.9-2.4-0.8-3.7
			c0-1.9,0.4-3.9,1.2-5.6c1.4-2.9,4.1-4.9,6.9-6.5c2.8-1.6,6.7-2.9,9.2-4.8c2.5-2,2.6-5.1,3.2-8c1.5-7.4,4.4-14.8,7.6-21.6
			c0.6-1.3,1.2-2.6,2-3.8c1.1-1.8,2.5-4.1,3.8-5.8c1.1-1.4,2.4-2.4,3.9-3.3c0.4-0.2,0.7-0.4,1.2-0.6c1.9-0.7,4.7-0.2,5.6,1.7
			c0.2,0.5,0.3,1,0.4,1.5c0.2,2,0,4.6-0.3,6.6c-0.3,1.6-0.9,3.1-1.5,4.6c-0.4,1.1-0.8,2.3-1.3,3.4c-0.4,1-0.9,1.8-1.4,2.7
			c-0.3,0.6-0.6,1.2-1,1.9c-0.5,0.8-0.9,1.7-1.4,2.5c-0.5,0.8-1.1,1.5-1.6,2.3c-0.5,0.7-0.9,1.5-1.4,2.2c-0.4,0.6-0.8,1.2-1.2,1.7
			c-0.9,1.2-1.9,2.5-2.8,3.7c-0.3,0.4-0.6,0.8-0.8,1.2c-0.8,1.1-1.6,2.2-2.4,3.3c-0.3,0.4-0.3,1.3-0.4,1.8c-0.2,0.8-0.3,1.5-0.4,2.3
			c-0.2,1.5-0.3,3.1-0.4,4.6c-0.1,0.9-0.1,1.9,0.2,2.7c0.3,0.9,0.9,1.7,1.8,1.9c0.7,0.1,1.3-0.1,1.9-0.5c0.6-0.4,1-0.9,1.5-1.4
			c1-1.1,2.1-2.2,3.1-3.4c1.5-1.8,2.8-3.9,4.2-5.8c1.5-2.1,3.2-5.6,4.7-7.7c1.3-1.8,2.6-3.6,4.5-4.8c1.8-1.2,3.9-1.7,6.1-1.9
			c2.2-0.2,4.4-0.1,6.3,1.1c0.3,0.2,0.7,0.4,1.1,0.4c0.4,0,0.7-0.2,1-0.5c0.3-0.3,0.5-0.6,0.8-0.9c0.9-0.9,2.5-1.3,3.6-0.6
			c0.8,0.5,1.2,1.4,1.4,2.3c0.2,0.9,0,1.9-0.1,2.8c-0.4,2.2-1,4.4-1.7,6.5c-0.7,2.1-2,5.6-3.1,7.6c-0.7,1.3-1.9,3.6-0.6,4.9
			c0.5,0.5,1.3,0.6,2,0.4c0.7-0.2,1.2-0.7,1.8-1.1c2.5-2.2,4.5-5,5.7-8c1.9-4.5,2.2-8,2.8-10c0-0.1,0-0.1,0-0.2
			c0.3-1.2,0.5-2.4,0.8-3.6c0.3-0.9,0.7-1.8,1-2.7c0.3-0.9,0.5-1.7,0.7-2.6c0.1-0.4,0.3-0.7,0.4-1.1c0.1-0.2,0.1-0.4,0.2-0.6
			c0.4-0.9,0.7-1.8,1.1-2.7c0.1-0.2,0.1-0.3,0.1-0.5c0.4-0.9,0.7-1.8,1.1-2.7c0.3-0.7,0.5-1.3,0.8-2c0.3-0.6,0.7-1.2,1-1.8
			c0.3-0.5,0.5-1,0.8-1.5c0.4-0.6,0.7-1.2,1.1-1.9c0.5-0.9,0.8-1.3,1.3-2.2c0.4-0.6,0.9-1.2,1.4-1.8c0.7-0.8,1.5-1.6,2.2-2.3
			c0.7-0.7,1.7-1.2,2.5-1.7c0.9-0.5,1.8-0.7,2.7-0.6c0.6,0.1,1.2,0.3,1.8,0.6c0.6,0.3,0.9,0.8,1.2,1.4c1.2,2.4,1,4.5,0.6,7
			c-0.3,2.1-1.1,3.9-1.9,5.8c-0.6,1.5-1.4,2.9-2.1,4.4c-0.5,0.9-0.9,1.9-1.5,2.8c-0.4,0.8-1,1.5-1.4,2.3c-0.7,1.1-1.3,2.1-1.7,3.3
			c-0.1,0.2-0.1,0.5,0.1,0.6c0.2,0.1,0.4,0,0.5-0.1c2-1.5,5-1.6,7.1-0.2c0.5,0.3,1,0.8,1.4,1.3c0.3,0.3,0.6,0.7,0.8,1.1
			c0.3,0.5,0.4,1.1,0.6,1.6c0.2,0.7,0.3,1.4,0.4,2.1c0.1,0.5,0.1,1,0.5,1.3c0.7,0.5,1.5,0,2.2-0.2c0.9-0.4,1.7-0.9,2.5-1.5
			c1.9-1.4,3.8-2.7,5.7-4.1c0.9-0.7,1.9-1.3,2.9-1.7c1.2-0.4,2.6-0.2,3.8,0.4c1.2,0.7,1.4,1.9,1.2,3.2c-0.4,3.2-2.1,6.1-3.2,9.1
			c-1.2,3.3-1.7,7.1-1.3,10.5c0.2,1.4,1.8,2.4,3,1.7c1-0.6,1.8-1.3,2.6-2.1c0.8-0.8,1.5-1.7,2.2-2.6c0.1-0.2,0.3-0.4,0.4-0.6
			c0.8-1.2,1.5-2.5,2-3.9c1.3-3.7,3.1-6.6,5.4-9.8c1.9-2.5,4.4-4.3,7.2-5.6c2.4-1.1,5-1.1,7.5-0.9c1,0.1,2.1,0.4,3,0.9
			c0.8,0.5,1.5,1.4,1.9,2.2c1,1.8,1.4,3.8,0.8,5.7c-0.9,2.8-4.1,5.7-7.2,4.7c-2.3-0.7-3.9-3.7-2.6-6c0.3-0.5,0.7-1,0.5-1.6
			c-0.1-0.4-0.6-0.6-1-0.6c-0.4,0-0.8,0.2-1.2,0.4c-1.4,0.7-2.7,1.5-3.6,2.7c-0.8,0.9-1.4,2.1-1.8,3.2c-0.8,2-1.1,3.7-1.1,5.8
			c0,1.4,0.1,2.6,0.8,3.8c0.6,1.1,1.7,1.8,2.9,2.1c1.4,0.3,2.9,0.1,4.3-0.1c0.7-0.1,1.5-0.3,2.2-0.6c0.6-0.2,1.1-0.5,1.6-0.8
			c1.2-0.7,2.4-1.5,3.5-2.4c1.6-1.3,2.5-2.8,3.3-4.6c1.8-3.8,2.2-7.5,4.4-11.1c0.9-1.4,1.7-2.8,3.3-3.5c1.7-0.7,3.6-0.9,5,0.5
			c0.7,0.7,0.9,1.7,0.9,2.7c0,1.8-0.2,2.7-0.9,4.3c-1.1,2.6-2.8,4.8-3.9,7.5c-0.7,1.7-2.9,6.6-2.5,8.4c0.2,0.8,0.9,1.3,1.6,1.4
			c0.5,0.1,1-0.1,1.5-0.3c3.8-1.4,7.3-5.9,9.6-9.2c0.5-0.7,1-1.8,0.4-2.5c-0.7-0.8-2-0.1-3.1,0c-0.2,0-0.4,0-0.6-0.2
			c-0.1-0.1-0.1-0.3-0.1-0.5c0-1,0.7-1.9,1.6-2.5c0.9-0.5,1.9-0.7,2.9-0.8c2.8-0.2,6,0.9,6.8,3.6c0.5,1.7-0.1,3.4-0.8,5
			C211,175.9,205.2,181.2,200.2,183.5z M124,159.4c-0.9,0.3-1.6,1.3-2.2,2c-0.8,0.9-1.5,1.8-2.2,2.8c-1,1.5-2,3.7-1.7,5.5
			c0.3,1.9,0.1,4.3,1.2,6c0.8,1.2,1.8,1.6,3,1.8c0.9,0.2,1.9-0.2,2.8-0.6c1.5-0.5,2.7-2.1,3.9-3.1c0.8-0.6,1.3-1.5,1.9-2.3
			c0.2-0.3,0.5-0.6,0.7-1c0.3-0.6,2.2-3.4,0.8-3.7c-3.2-0.8-5.9-3.4-6.9-6.5c-0.1-0.3-0.2-0.7-0.5-0.9
			C124.5,159.3,124.2,159.3,124,159.4z M83.5,173.6c0,0.6,0.1,1.3,0.2,1.9c0.4,1.5,1.3,2.8,2.7,3.4c1.1,0.5,2.3,0.2,3.2-0.5
			c0.9-0.7,1.5-1.8,1.9-2.9c0.4-1.1,0.5-2.3,0.7-3.4c0.5-3.3,1.5-7.9,2.6-11.1c0.3-0.7,0.5-1.7-0.1-2.2c-0.3-0.2-0.6-0.3-1-0.4
			c-1.6-0.2-3.1,0.4-4.4,1.4c-1.2,0.9-2.2,2-3.1,3.2c-0.8,1.2-1.3,4-1.8,5.3C84,170.1,83.5,171.9,83.5,173.6z M129.1,138.4
			c-0.1,0-0.1,0-0.2,0c-1.2,0.3-2.2,1.7-2.7,2.7c-0.8,1.5-1.6,2.9-2.3,4.4c-0.9,1.9-1.8,3.8-2.3,5.9c-0.1,0.5-0.2,1,0,1.4
			c3-3.7,5.7-7.7,7.9-12c0.2-0.4,0.4-0.8,0.5-1.3c0-0.4,0-0.8-0.4-1C129.4,138.4,129.3,138.4,129.1,138.4z M67.7,155
			c2.4-2.2,3.7-5.3,5.2-8.1c1.4-2.6,2.7-5.2,3.3-8.1c0-0.1,0-0.2,0-0.3c-0.1-0.2-0.3-0.3-0.5-0.2c-0.2,0-0.4,0.2-0.5,0.3
			c-2.4,2.4-3.7,5.7-4.9,8.9c-0.6,1.5-1.1,3.1-1.7,4.6c-0.2,0.6-0.4,1.1-0.5,1.7C67.9,154.1,67.9,154.8,67.7,155z M131,158.4
			c-0.3,0.1-0.7,0.1-0.8,0.2c-0.3,0.4-0.7,1-0.7,1.4c0.1,0.6,0.4,1.2,0.8,1.6c0.5,0.5,1.2,0.8,1.9,1.1c1,0.4,1.7,0,1.5-1.1
			c-0.1-0.6-0.3-1.3-0.7-1.8C132.5,159.2,132.1,158.3,131,158.4z"/>
		<path class="st0" d="M158.8,139.3c0.5,0,1,0,1.5,0c0.9,0.1,1.5,0.4,2,1.1c0.5,0.7,0.8,1.5,0.9,2.3c0.1,1.7-0.5,3.1-1.6,4.2
			c-0.7,0.7-1.5,1.3-2.5,1.8c-1.2,0.6-2.3,0.6-3.5,0.7c-1.8,0.1-4-1.7-3.9-3.7c0.1-2.1,1.3-4.1,3.1-5.1
			C156.1,139.9,157.4,139.4,158.8,139.3z"/>
		<path class="st0" d="M203.6,139.4c0,0,0.1,0,0.1,0c2.3-0.3,4.3,1.2,4.3,3.6c0,1.3-0.2,2.4-1.1,3.5c-0.9,1-1.8,1.8-3,2.5
			c-1.2,0.7-2.4,0.7-3.7,0.7c-1.2,0-2.1-0.6-2.9-1.5c-1.1-1.3-1-4.2,0.4-5.5c0.8-0.8,1.4-1.8,2.5-2.2
			C201.3,139.9,202.5,139.6,203.6,139.4z"/>
	</g>
</g>
</svg>
